<?xml version="1.0" encoding="utf-8"?>
<!-- Generator: Adobe Illustrator 21.1.0, SVG Export Plug-In . SVG Version: 6.00 Build 0)  -->
<svg version="1.1" id="Layer_1" xmlns="http://www.w3.org/2000/svg" xmlns:xlink="http://www.w3.org/1999/xlink" x="0px" y="0px"
	 viewBox="0 0 1200.7 1200.7" style="enable-background:new 0 0 1200.7 1200.7;" xml:space="preserve">
<style type="text/css">
	.st0{fill:#FFFFFF;}
	.st1{fill:#FFF5EB;}
	.st2{fill:#56622B;}
</style>
<g>
	<path class="st0" d="M600.5,1191.4c122.2,0,244.5,0.1,366.7-0.1c12.3,0,24.8-0.9,36.9-2.8c54-8.4,98.8-33.7,134.2-75.2
		c35.5-41.6,53-90.2,53-144.8c0.1-245.4,0.1-490.7-0.1-736.1c0-14.4-1.5-29-4.1-43.2c-7.1-39.3-24.2-74.1-50.7-103.9
		c-43.3-48.6-97.7-75.3-162.8-75.5C725.7,9.1,477.8,9.5,230,9.6c-12.4,0-25,1.2-37.2,3.3c-42.9,7.4-80.5,26-112.3,55.8
		c-45.7,43-70.6,96.2-70.7,158.9C9.1,475.5,9.5,723.4,9.5,971.3c0,16.2,1.9,32.2,5.5,47.9c23.8,101.6,112.9,172.2,217.2,172.2
		C355,1191.4,477.7,1191.4,600.5,1191.4z"/>
	<path class="st1" d="M600.5,1191.4c-122.7,0-245.5,0-368.2,0c-104.4,0-193.5-70.6-217.2-172.2c-3.7-15.7-5.5-31.7-5.5-47.9
		c0-247.9-0.3-495.7,0.2-743.6c0.2-62.8,25-115.9,70.7-158.9c31.7-29.9,69.4-48.4,112.3-55.8c12.2-2.1,24.8-3.3,37.2-3.3
		c247.9-0.2,495.7-0.5,743.6,0.2c65.1,0.2,119.5,26.9,162.8,75.5c26.6,29.8,43.6,64.6,50.7,103.9c2.6,14.2,4.1,28.8,4.1,43.2
		c0.2,245.4,0.2,490.7,0.1,736.1c0,54.6-17.5,103.3-53,144.8c-35.4,41.4-80.3,66.7-134.2,75.2c-12.2,1.9-24.6,2.8-36.9,2.8
		C845,1191.4,722.7,1191.4,600.5,1191.4z M965.3,236.9c-0.8-0.1-1.3-0.2-1.8-0.2c-52,0.2-104,0.2-156,0.8
		c-21.8,0.3-43.2,4.2-63.9,11.2c-37.8,12.7-65.8,36.4-82,73.3c-11.5,26.2-16.2,54-16.7,82.4c-0.7,33-0.3,66-0.4,99
		c0,1.5,0,2.9,0,4.8c-24.1,0-47.8,0-71.6,0c0,46.1,0,91.8,0,138c23.9,0,47.5,0,71.7,0c0,136.6,0,272.7,0,408.8
		c61.8,0,123.1,0,184.7,0c0-136.4,0-272.4,0-408.8c1.8,0,3.3,0,4.8,0c33.9,0,67.7,0,101.6,0c2.5,0,4.1-0.2,4.4-3.3
		c1.6-16.4,3.5-32.8,5.3-49.2c2.4-22.2,4.9-44.4,7.3-66.6c0.7-6.1,1.3-12.3,1.9-18.9c-42.1,0-83.6,0-125.5,0c0-1.5,0-2.6,0-3.7
		c0-23.7-0.1-47.5,0.1-71.2c0.1-9.1,0.5-18.2,1.5-27.3c1.6-13.7,8.9-23.2,22.4-27.6c9.4-3.1,19.1-4,28.8-4
		c26.2-0.2,52.5-0.1,78.7-0.1c1.5,0,2.9,0,4.5,0C965.3,328.2,965.3,282.7,965.3,236.9z"/>
	<path class="st2" d="M965.3,236.9c0,45.8,0,91.2,0,137.2c-1.6,0-3.1,0-4.5,0c-26.2,0-52.5-0.1-78.7,0.1c-9.7,0.1-19.4,0.9-28.8,4
		c-13.5,4.4-20.8,13.9-22.4,27.6c-1.1,9-1.5,18.2-1.5,27.3c-0.2,23.7-0.1,47.5-0.1,71.2c0,1.1,0,2.2,0,3.7c41.9,0,83.4,0,125.5,0
		c-0.7,6.6-1.3,12.8-1.9,18.9c-2.4,22.2-4.9,44.4-7.3,66.6c-1.8,16.4-3.6,32.8-5.3,49.2c-0.3,3.2-1.9,3.4-4.4,3.3
		c-33.9-0.1-67.7,0-101.6,0c-1.5,0-3,0-4.8,0c0,136.4,0,272.4,0,408.8c-61.6,0-122.9,0-184.7,0c0-136,0-272.1,0-408.8
		c-24.2,0-47.9,0-71.7,0c0-46.2,0-91.8,0-138c23.8,0,47.4,0,71.6,0c0-1.9,0-3.4,0-4.8c0.1-33-0.3-66,0.4-99
		c0.6-28.4,5.3-56.2,16.7-82.4c16.2-36.9,44.2-60.6,82-73.3c20.7-7,42.1-10.9,63.9-11.2c52-0.6,104-0.6,156-0.8
		C964,236.7,964.5,236.9,965.3,236.9z"/>
</g>
</svg>
