<?xml version="1.0" encoding="utf-8"?>
<!-- Generator: Adobe Illustrator 21.1.0, SVG Export Plug-In . SVG Version: 6.00 Build 0)  -->
<svg version="1.1" id="Layer_1" xmlns="http://www.w3.org/2000/svg" xmlns:xlink="http://www.w3.org/1999/xlink" x="0px" y="0px"
	 viewBox="0 0 1182.3 1180" style="enable-background:new 0 0 1182.3 1180;" xml:space="preserve">
<style type="text/css">
	.st0{fill:#FFF5EB;}
	.st1{fill:#56622B;}
</style>
<title>instagram</title>
<g>
	<path class="st0" d="M694,1181c-67.3,0-134.7,0-202,0c-1.3-0.4-2.6-1-4-1c-13.8-0.4-27.5-0.6-41.3-1.1c-20-0.6-40.1-1.3-60.1-2
		c-14.7-0.6-29.4-1.3-44.1-2c-19-0.9-38-1.9-56.9-3c-12.2-0.8-24.4-1.2-36.4-3.1c-15.7-2.5-31.4-5.8-46.9-9.9
		c-20.2-5.3-39-14-57.1-24.3c-16.5-9.3-31.9-20.1-45.8-32.9c-19.1-17.6-35.7-37.3-49-59.8c-13.4-22.7-23.4-46.7-30.3-72
		c-7.1-26.1-9.1-52.9-11-79.8c-0.8-12-1.4-24.1-2-36.1c-0.7-14-1.4-28.1-2-42.1c-0.7-17-1.5-34.1-2-51.1c-0.5-19.8-0.7-39.5-1-59.3
		c0-2.8,0.1-5.7-0.1-8.5c-0.1-1-0.7-2-1-3c0-67.7,0-135.3,0-203c0.4-1,1-2,1-3c0.4-15.3,0.7-30.5,1.1-45.8c0.2-9.3,0.6-18.5,1-27.8
		c0.7-17.2,1.3-34.4,2-51.6c0.6-13,1.3-26.1,2-39.1c1-17.3,1.5-34.7,3.1-51.9c1.4-14.8,3.1-29.7,6.3-44.2
		c6.4-29,17.4-56.4,32.4-82.2c11-18.8,24.6-35.7,39.7-51.2c7.8-7.9,16.8-14.8,25.5-21.7c30.5-24.2,65.4-39.4,102.7-49.2
		c24.2-6.3,49-8.7,73.9-10.2c11.7-0.7,23.4-1.4,35.1-2c14-0.7,28.1-1.4,42.1-2c16.7-0.7,33.4-1.5,50.1-2c20.3-0.5,40.5-0.7,60.8-1
		c2.8,0,5.7,0.1,8.5-0.1c0.8,0,1.7-0.7,2.5-1c65.7,0,131.3,0,197,0c1,0.4,2,1,3,1c14.4,0.4,28.9,0.7,43.3,1.1
		c10.3,0.3,20.5,0.6,30.8,1c17,0.6,34.1,1.3,51.1,2c13.5,0.6,27.1,1.3,40.6,2c17,0.9,34,1.7,50.9,3.1c11.3,0.9,22.5,2.2,33.7,4
		c32.2,5.2,62.5,15.9,91,32c30.2,17.1,55.8,39.6,76.9,66.9c20.1,26.1,34.9,55.1,45.8,86.2c10.3,29.1,16.3,59.2,19.7,89.7
		c2,18,3,36.1,4.1,54.2c0.9,14.9,1.4,29.7,2,44.6c0.4,10.6,0.8,21.2,1,31.8c0.4,27.8,0.7,55.5,1,83.3c0.1,6.8-0.1,13.7,0.1,20.5
		c0,1.5,0.7,3,1,4.5c0,43,0,86,0,129c-0.4,1.5-1,3-1,4.5c-0.4,23.4-0.7,46.9-1.1,70.3c-0.3,15.9-0.6,31.9-1,47.8
		c-0.2,7.6-0.6,15.2-1,22.8c-1,20.5-1.9,40.9-3.1,61.4c-0.7,12.7-1.5,25.3-3.1,37.9c-1.7,12.4-4.3,24.8-6.8,37.1
		c-4.8,24.1-12.5,47.3-22.8,69.6c-11.9,25.9-25.9,50.5-45.6,71.3c-11.4,12.1-23.2,24.2-36,34.7c-17,13.9-36,25-56.3,33.5
		c-17.8,7.4-36,13.8-55.1,16.9c-19.4,3.1-39,5.1-58.6,7.1c-11.8,1.2-23.7,1.5-35.6,2.1c-13.7,0.7-27.4,1.4-41.1,2
		c-17,0.7-34.1,1.5-51.1,2c-19.6,0.5-39.2,0.7-58.8,1c-3,0-6-0.1-9,0.1C696,1180,695,1180.6,694,1181z M589,1078c0-0.3,0-0.7,0-1
		c31.6,0,63.2,0.1,94.8,0c19.1-0.1,38.2-0.6,57.3-1c13.4-0.3,26.9-0.6,40.3-1c21-0.6,42.1-1.1,63.1-2.1c12.5-0.6,25.1-1.1,37.4-3.1
		c15.8-2.5,31.6-5.5,46.8-10c37.5-11.2,69.6-31.2,94.8-61.7c13-15.7,22.8-33.3,30.3-52c11.1-27.5,15.9-56.6,18.1-86
		c1.2-15.8,1.5-31.7,2.1-47.6c0.4-9.9,0.7-19.9,1-29.8c0.4-12.1,0.8-24.2,1-36.3c0.4-29.6,0.8-59.2,1-88.8c0.2-24.7,0.2-49.4,0-74.1
		c-0.2-35.8-0.6-71.5-1-107.3c-0.2-15.3-0.6-30.5-1-45.8c-0.3-11.9-0.6-23.9-1-35.8c-0.6-18.7-1.7-37.4-1.9-56.1
		c-0.2-18.2-1.9-36.1-5.1-54c-3.7-20.7-9.6-40.6-18.6-59.6c-10.1-21.4-23.8-40.2-41.2-56.4c-11.8-10.9-24.7-20-38.7-27.7
		c-32.9-18.1-68.8-26.5-105.7-30.7c-15.2-1.8-30.6-2.3-45.9-3.1c-13.6-0.6-27.2-1.1-40.8-1c-25.9,0.1-51.9,0.6-77.8,0.9
		c-26.9,0.3-53.9,0.9-80.8,0.9c-18.6,0-37.2-0.7-55.8-0.9c-27.3-0.4-54.5-1-81.8-0.9c-30.9,0-61.9,0.4-92.8,1
		c-16.2,0.3-32.5,0.8-48.6,2.1c-17,1.4-34,3.3-50.8,6c-22.6,3.7-44.4,10.7-65.1,20.6c-24,11.5-45,26.9-62.4,47.3
		c-13,15.2-23.3,32.1-31,50.4c-12.5,29.5-17.9,60.7-20.2,92.5c-1.2,16.2-1.5,32.4-2.1,48.6c-0.4,10.9-0.7,21.9-1,32.8
		c-0.4,13.1-0.7,26.2-1,39.3c-0.4,18.4-1,36.9-1,55.3c0.2,61.6,0.6,123.2,1,184.8c0.1,18.4,0.6,36.9,1,55.3
		c0.3,13.1,0.6,26.2,1,39.3c0.3,11.1,0.6,22.2,1,33.3c0.6,16,0.8,32.1,2.1,48.1c1.2,14.2,3.3,28.3,5.9,42.3
		c6.8,36,21.1,68.5,45,96.7c14.4,16.9,31.3,30.6,50.6,41.2c35.3,19.4,73.7,27.3,113.4,30.1c16.7,1.2,33.4,1.5,50.1,2.1
		c10.9,0.4,21.9,0.7,32.8,1c12.8,0.4,25.5,0.7,38.3,1c20.9,0.4,41.9,0.8,62.8,1C535.7,1078.2,562.3,1078,589,1078z"/>
	<path class="st1" d="M589,1078c-26.7,0-53.3,0.1-80,0c-20.9-0.1-41.9-0.6-62.8-1c-12.8-0.2-25.5-0.6-38.3-1
		c-10.9-0.3-21.9-0.6-32.8-1c-16.7-0.6-33.4-0.9-50.1-2.1c-39.7-2.8-78.1-10.7-113.4-30.1c-19.3-10.6-36.2-24.2-50.6-41.2
		c-23.9-28.2-38.3-60.7-45-96.7c-2.6-14-4.7-28.1-5.9-42.3c-1.4-16-1.5-32.1-2.1-48.1c-0.4-11.1-0.7-22.2-1-33.3
		c-0.4-13.1-0.7-26.2-1-39.3c-0.4-18.4-0.9-36.9-1-55.3c-0.4-61.6-0.8-123.2-1-184.8c-0.1-18.4,0.6-36.9,1-55.3
		c0.3-13.1,0.6-26.2,1-39.3c0.3-10.9,0.6-21.9,1-32.8c0.6-16.2,0.9-32.4,2.1-48.6c2.3-31.8,7.7-63,20.2-92.5
		c7.8-18.3,18-35.2,31-50.4c17.4-20.4,38.4-35.8,62.4-47.3c20.7-9.9,42.5-17,65.1-20.6c16.8-2.7,33.8-4.6,50.8-6
		c16.2-1.3,32.4-1.8,48.6-2.1c30.9-0.6,61.9-1,92.8-1c27.3,0,54.5,0.6,81.8,0.9c18.6,0.3,37.2,1,55.8,0.9
		c26.9-0.1,53.9-0.6,80.8-0.9c25.9-0.3,51.9-0.8,77.8-0.9c13.6-0.1,27.2,0.4,40.8,1c15.3,0.7,30.7,1.3,45.9,3.1
		c36.9,4.3,72.7,12.6,105.7,30.7c14,7.7,26.9,16.8,38.7,27.7c17.5,16.2,31.1,35,41.2,56.4c9,19,14.9,38.9,18.6,59.6
		c3.2,17.9,4.9,35.8,5.1,54c0.2,18.7,1.3,37.4,1.9,56.1c0.4,11.9,0.7,23.9,1,35.8c0.4,15.3,0.8,30.5,1,45.8
		c0.4,35.8,0.8,71.5,1,107.3c0.2,24.7,0.2,49.4,0,74.1c-0.2,29.6-0.6,59.2-1,88.8c-0.2,12.1-0.6,24.2-1,36.3
		c-0.3,9.9-0.6,19.9-1,29.8c-0.6,15.9-0.9,31.8-2.1,47.6c-2.2,29.4-7,58.5-18.1,86c-7.5,18.7-17.3,36.3-30.3,52
		c-25.2,30.5-57.3,50.5-94.8,61.7c-15.3,4.6-31.1,7.5-46.8,10c-12.3,2-24.9,2.5-37.4,3.1c-21,1-42.1,1.4-63.1,2.1
		c-13.4,0.4-26.9,0.7-40.3,1c-19.1,0.4-38.2,0.9-57.3,1c-31.6,0.2-63.2,0-94.8,0C589,1077.4,589,1077.7,589,1078z M897,591.1
		c-1.4-15.3-2-30.7-4.3-45.8c-2.4-15.4-5.8-30.8-9.8-45.9c-5.8-21.9-15.1-42.4-26.3-62.2c-12.2-21.5-26.8-41.3-44.1-59
		c-8.9-9.1-18.7-17.2-28.4-25.5c-16-13.7-33.7-25-52.8-33.7c-16.9-7.7-34.4-14.2-52-19.9c-24.8-8-50.6-11.5-76.5-11.9
		c-17.6-0.3-35.3,1.4-52.9,2.8c-18.6,1.5-36.7,6-54.5,11.8c-23.6,7.6-45.9,17.8-67.1,30.8c-19.3,11.9-36.7,26.1-52.9,41.6
		c-7.5,7.1-13.9,15.4-20.6,23.4c-12,14.4-22.2,30-30.9,46.5c-10.2,19.3-18.3,39.4-24.3,60.4c-6.5,23-10.3,46.4-11.5,70.1
		c-0.7,13.6,0,27.2,1,40.8c1,13.1,2.7,26.1,4.9,39c4.2,24.4,12.2,47.7,22.8,70.1c10.6,22.5,22.8,44,39.7,62.3
		c13.9,15,27.9,30.2,43.6,43.2c21.1,17.6,45.1,31.2,70.7,41.8c30.8,12.8,62.9,20,95.9,22.8c12.3,1,24.7,0.1,37.1,0.2
		c17.7,0.1,35-2.5,52.3-5.9c30.2-5.9,58.6-16.6,85.8-31.1c24.8-13.3,47-30.1,66.8-49.9c10.8-10.7,20.2-23,29.4-35.1
		c20.1-26.4,34.3-55.8,43.9-87.6C891.6,654.6,896.6,623.4,897,591.1z M917.3,207c-38.2-1.5-69,30.8-69.1,67.5
		c0,40.6,30.1,70,69.4,70.2c37.4,0.2,66.1-29.5,68.6-64C989.2,237.3,952.7,204.7,917.3,207z"/>
	<path class="st0" d="M897,591.1c-0.4,32.2-5.4,63.5-14.8,94.2c-9.7,31.7-23.9,61.2-43.9,87.6c-9.2,12.2-18.6,24.4-29.4,35.1
		c-19.8,19.8-42,36.6-66.8,49.9c-27.1,14.5-55.5,25.2-85.8,31.1c-17.3,3.4-34.7,5.9-52.3,5.9c-12.4,0-24.8,0.8-37.1-0.2
		c-33.1-2.8-65.1-10-95.9-22.8c-25.6-10.6-49.5-24.2-70.7-41.8c-15.7-13.1-29.7-28.2-43.6-43.2c-16.9-18.3-29.1-39.9-39.7-62.3
		c-10.6-22.4-18.6-45.6-22.8-70.1c-2.2-12.9-4-25.9-4.9-39c-1-13.6-1.6-27.2-1-40.8c1.2-23.7,5-47.1,11.5-70.1
		c5.9-21,14.1-41.1,24.3-60.4c8.7-16.6,18.9-32.1,30.9-46.5c6.6-8,13.1-16.2,20.6-23.4c16.3-15.5,33.6-29.7,52.9-41.6
		c21.2-13,43.5-23.2,67.1-30.8c17.7-5.7,35.8-10.3,54.5-11.8c17.6-1.4,35.3-3.1,52.9-2.8c25.9,0.5,51.7,3.9,76.5,11.9
		c17.6,5.7,35.1,12.3,52,19.9c19.1,8.7,36.8,20,52.8,33.7c9.7,8.2,19.5,16.4,28.4,25.5c17.3,17.6,31.9,37.4,44.1,59
		c11.2,19.7,20.5,40.3,26.3,62.2c4,15.1,7.5,30.4,9.8,45.9C895.1,560.5,895.7,575.8,897,591.1z M394.9,591.5
		c-0.2,107.6,90.2,195.4,193.9,197.4c51,1,95.8-16.9,133.6-50.9c43.3-38.9,67-88,67.2-146.3c0.2-52.6-19.5-98.6-56.2-136.4
		c-36.5-37.6-81.2-59.1-133.9-61.1C485.4,389.7,393.6,486.9,394.9,591.5z"/>
	<path class="st0" d="M917.3,207c35.5-2.3,72,30.3,68.9,73.7c-2.5,34.5-31.2,64.1-68.6,64c-39.2-0.2-69.4-29.5-69.4-70.2
		C848.2,237.9,879.1,205.6,917.3,207z"/>
	<path class="st1" d="M394.9,591.5c-1.3-104.6,90.5-201.8,204.7-197.4c52.7,2,97.5,23.5,133.9,61.1c36.6,37.8,56.4,83.8,56.2,136.4
		c-0.3,58.3-23.9,107.4-67.2,146.3c-37.8,34-82.7,51.9-133.6,50.9C485.1,786.9,394.7,699.1,394.9,591.5z"/>
</g>
</svg>
